# xmcd
#
# Track frame offsets: 
#        150
#        12139
#        24484
#        35125
#        53684
#        68577
#        78616
#        89409
#        102499
#        117063
#        129426
#        139523
#        149574
#        161903
#        172942
#        182944
#        196787
#        209825
#        221937
#        230274
#        252325
#        267128
#        280701
#        293512
#        302241
#
# Disc length: 4235 seconds
#
# Revision: 1
# Processed by: cddbd v1.5.2PL0 Copyright (c) Steve Scherf et al.
# Submitted via: ExactAudioCopy v1.0b3
#
DISCID=71108919
DTITLE=Various Artist - All Night Long - The Crown Record Story [CD1]
DYEAR=2014
DGENRE=Blues
TTITLE0=Joe Houston - All Night Long
TTITLE1=Marvin and Johnny - Ko Ko Mo (I Love You So)
TTITLE2=The Jacks - Let's Make Up
TTITLE3=Charlie Barnet and his orchestra - Backbeat Boogie
TTITLE4=Etta James - Crazy Feeling
TTITLE5=Little Clydie and The Teens - A Casual Look
TTITLE6=Jimmy McCracklin - I Can't Tell
TTITLE7=B. B. King - Bad Luck
TTITLE8=The Cadets - Stranded In The Jungle
TTITLE9=John Lee Hooker - House Rent Boogie
TTITLE10=Elmore James - Mean And Evil
TTITLE11=Jimmy Beasley - Don't Feel Sorry For Me
TTITLE12=Willard McDaniel - Sugar Blues
TTITLE13=Jimmy Witherspoon - New Orleans Woman
TTITLE14=Jesse Belvin - (I Love You For) Sentimental Reasons
TTITLE15=Howlin' Wolf - Ridin' In The Moonlight
TTITLE16=Rosco Gordon - No More Doggin'
TTITLE17=Pee Wee Crayton - Texas Hop
TTITLE18=Kay Starr - Them There Eyes
TTITLE19=Coleman Hawkins and His Orchestra - After Midnight
TTITLE20=Aaron Collins - Dayo (Banana Boat Song)
TTITLE21=The Polynesians - Blue Hawaii
TTITLE22=Louis Polliemon and Lord Preston Epps - Going Back To Jamaica
TTITLE23=The Princeton Trio - The Girl I Left Behind Me
TTITLE24=Paul Sykes - I Know An Old Woman Who Swallowed A Fly
EXTD=
EXTT0=
EXTT1=
EXTT2=
EXTT3=
EXTT4=
EXTT5=
EXTT6=
EXTT7=
EXTT8=
EXTT9=
EXTT10=
EXTT11=
EXTT12=
EXTT13=
EXTT14=
EXTT15=
EXTT16=
EXTT17=
EXTT18=
EXTT19=
EXTT20=
EXTT21=
EXTT22=
EXTT23=
EXTT24=
PLAYORDER=
